# xmcd
#
# Track frame offsets:
#	150
#	25175
#	52838
#	66843
#	91682
#	110686
#	125810
#	138522
#	155505
#	159736
#	181281
#	200317
#	208395
#	227299
#	246913
#	262760
#	281111
#	299341
#	318277
#
# Disc length: 4416 seconds
#
# Revision: 8
# Processed by: cddbd v1.5.2PL0 Copyright (c) Steve Scherf et al.
# Submitted via: EasyCDDAExtractor 11.0.0.1
#
DISCID=14113e13
DTITLE=Various Artist - King Of The Blues
DYEAR=1992
DGENRE=Blues
TTITLE0=B.B. King  f. Ray Charles - Let The Good Times Roll
TTITLE1=B.B. King - Don't You Lie To Me
TTITLE2=B.B. King - Mother Fuyer
TTITLE3=B.B. King - Never Make A Move Too Soon
TTITLE4=B.B. King - When It All Comes Down
TTITLE5=B.B. King - Better Not Look Down
TTITLE6=B.B. King - Caldonia
TTITLE7=B.B. King - There Must Be A Better World Somewhere 
TTITLE8=B.B. King - Play With Your Poodle
TTITLE9=B.B. King - Darlin' You Know I Love You
TTITLE10=B.B. King - Inflation Blues
TTITLE11=B.B. King - Make Love To Me
TTITLE12=B.B. King - Into The Night
TTITLE13=B.B. King - Six Silver Strings
TTITLE14=B.B. King  f. Bono - When Love Comes To Town
TTITLE15=B.B. King - Right Time, Wrong Place
TTITLE16=B.B. King - Many Miles Travelled
TTITLE17=B.B. King - I'm Moving On
TTITLE18=B.B. King  f. Gary Moore - Since I Met You Baby
EXTD=
EXTT0=
EXTT1=
EXTT2=
EXTT3=
EXTT4=
EXTT5=
EXTT6=
EXTT7=
EXTT8=
EXTT9=
EXTT10=
EXTT11=
EXTT12=
EXTT13=
EXTT14=
EXTT15=
EXTT16=
EXTT17=
EXTT18=
PLAYORDER=
